<svg width="25" height="24" viewBox="0 0 25 24" fill="none" xmlns="http://www.w3.org/2000/svg">
<path d="M14 3V4.5H18.94L13.173 10.266C11.9636 9.32626 10.4414 8.88284 8.91655 9.02602C7.39165 9.16921 5.97867 9.88823 4.96533 11.0367C3.95198 12.1851 3.41448 13.6766 3.46227 15.2075C3.51006 16.7384 4.13955 18.1934 5.22256 19.2764C6.30556 20.3594 7.76064 20.9889 9.2915 21.0367C10.8224 21.0845 12.3139 20.547 13.4623 19.5337C14.6108 18.5203 15.3298 17.1073 15.473 15.5824C15.6162 14.0576 15.1727 12.5354 14.233 11.326L20 5.562V10.5H21.5V3H14ZM9.5 19.5C8.30652 19.5 7.16193 19.0259 6.31802 18.182C5.4741 17.3381 5 16.1935 5 15C5 13.8065 5.4741 12.6619 6.31802 11.818C7.16193 10.9741 8.30652 10.5 9.5 10.5C10.6935 10.5 11.8381 10.9741 12.682 11.818C13.5259 12.6619 14 13.8065 14 15C14 16.1935 13.5259 17.3381 12.682 18.182C11.8381 19.0259 10.6935 19.5 9.5 19.5Z" fill="black"/>
</svg>
