<svg width="25" height="24" viewBox="0 0 25 24" fill="none" xmlns="http://www.w3.org/2000/svg">
<path d="M14.54 22.75H9.74999C8.12999 22.75 6.65999 22.12 5.59999 20.96C4.53999 19.81 4.02999 18.29 4.16999 16.68C4.50999 12.58 8.12999 9.25 12.25 9.25C16.04 9.25 19.62 12.29 20.25 16.02C20.55 17.8 20.11 19.48 19.03 20.76C17.93 22.04 16.34 22.75 14.54 22.75ZM12.24 10.75C8.88999 10.75 5.93999 13.47 5.65999 16.81C5.55999 18 5.92999 19.11 6.69999 19.95C7.46999 20.79 8.54999 21.25 9.73999 21.25H14.53C15.88 21.25 17.07 20.73 17.86 19.8C18.65 18.87 18.97 17.61 18.75 16.27C18.25 13.23 15.33 10.75 12.24 10.75Z" fill="#292D32"/>
<path d="M10.97 8.25C9.18 8.25 7.72 6.79 7.72 5C7.72 3.21 9.18 1.75 10.97 1.75C12.76 1.75 14.22 3.21 14.22 5C14.22 6.79 12.77 8.25 10.97 8.25ZM10.97 3.25C10.01 3.25 9.22 4.04 9.22 5C9.22 5.96 10.01 6.75 10.97 6.75C11.93 6.75 12.72 5.96 12.72 5C12.72 4.04 11.94 3.25 10.97 3.25Z" fill="#292D32"/>
<path d="M17.8 9.45001C16.28 9.45001 15.05 8.22001 15.05 6.70001C15.05 5.18001 16.28 3.95001 17.8 3.95001C19.32 3.95001 20.55 5.18001 20.55 6.70001C20.55 8.22001 19.32 9.45001 17.8 9.45001ZM17.8 5.45001C17.11 5.45001 16.55 6.01001 16.55 6.70001C16.55 7.39001 17.11 7.95001 17.8 7.95001C18.49 7.95001 19.05 7.39001 19.05 6.70001C19.05 6.01001 18.49 5.45001 17.8 5.45001Z" fill="#292D32"/>
<path d="M21.5 13.45C20.26 13.45 19.25 12.44 19.25 11.2C19.25 9.96001 20.26 8.95001 21.5 8.95001C22.74 8.95001 23.75 9.96001 23.75 11.2C23.75 12.44 22.74 13.45 21.5 13.45ZM21.5 10.45C21.09 10.45 20.75 10.79 20.75 11.2C20.75 11.61 21.09 11.95 21.5 11.95C21.91 11.95 22.25 11.61 22.25 11.2C22.25 10.79 21.91 10.45 21.5 10.45Z" fill="#292D32"/>
<path d="M4.47 11.45C2.95 11.45 1.72 10.22 1.72 8.70001C1.72 7.18001 2.95 5.95001 4.47 5.95001C5.99 5.95001 7.22 7.18001 7.22 8.70001C7.22 10.22 5.99 11.45 4.47 11.45ZM4.47 7.45001C3.78 7.45001 3.22 8.01001 3.22 8.70001C3.22 9.39001 3.78 9.95001 4.47 9.95001C5.16 9.95001 5.72 9.39001 5.72 8.70001C5.72 8.01001 5.16 7.45001 4.47 7.45001Z" fill="#292D32"/>
</svg>
