<svg width="25" height="24" viewBox="0 0 25 24" fill="none" xmlns="http://www.w3.org/2000/svg">
<path d="M12.5 15C13.6046 15 14.5 14.1046 14.5 13C14.5 11.8954 13.6046 11 12.5 11C11.3954 11 10.5 11.8954 10.5 13C10.5 14.1046 11.3954 15 12.5 15Z" stroke="#0F172A" stroke-width="1.5" stroke-linecap="round" stroke-linejoin="round"/>
<path d="M13.95 11.55L16 9.5L13.95 11.55ZM6.9 20C5.43815 18.8381 4.37391 17.2502 3.85478 15.4565C3.33564 13.6627 3.38732 11.7519 4.00265 9.98881C4.61797 8.22573 5.76647 6.69771 7.28899 5.6165C8.8115 4.53529 10.6326 3.95444 12.5 3.95444C14.3674 3.95444 16.1885 4.53529 17.711 5.6165C19.2335 6.69771 20.382 8.22573 20.9974 9.98881C21.6127 11.7519 21.6644 13.6627 21.1452 15.4565C20.6261 17.2502 19.5619 18.8381 18.1 20H6.9Z" stroke="#0F172A" stroke-width="1.5" stroke-linecap="round" stroke-linejoin="round"/>
</svg>
