<svg width="24" height="24" viewBox="0 0 24 24" fill="none" xmlns="http://www.w3.org/2000/svg">
<path fill-rule="evenodd" clip-rule="evenodd" d="M15.2373 2.07595C15.0515 2.17401 14.9564 2.3766 14.9054 2.78292C14.8023 3.6035 14.1999 4.20585 13.3793 4.30895C12.9647 4.36104 12.7697 4.45464 12.6705 4.64923C12.5697 4.8467 12.5697 5.00435 12.6705 5.20183C12.7697 5.39641 12.9647 5.49001 13.3793 5.54211C14.1999 5.6452 14.8023 6.24755 14.9054 7.06813C14.9261 7.23309 14.976 7.44217 15.0164 7.53276C15.2043 7.95499 15.8396 7.95499 16.0275 7.53276C16.0679 7.44217 16.1178 7.23309 16.1385 7.06813C16.2416 6.24755 16.844 5.6452 17.6646 5.54211C18.0792 5.49001 18.2742 5.39641 18.3734 5.20183C18.5301 4.89485 18.4225 4.55051 18.1292 4.41994C18.0386 4.37961 17.8295 4.32966 17.6646 4.30895C17.26 4.25814 16.9085 4.08955 16.6332 3.81427C16.3579 3.53902 16.1893 3.18753 16.1385 2.78292C16.0864 2.36828 15.9928 2.1733 15.7983 2.07404C15.6036 1.97469 15.428 1.97532 15.2373 2.07595ZM8.20279 3.24838C8.017 3.34643 7.92187 3.54902 7.87083 3.95535C7.76774 4.77593 7.16539 5.37828 6.34481 5.48137C5.93016 5.53347 5.73519 5.62707 5.63592 5.82165C5.53517 6.01913 5.53517 6.17678 5.63592 6.37425C5.73519 6.56884 5.93016 6.66243 6.34481 6.71453C7.16539 6.81762 7.76774 7.41998 7.87083 8.24056C7.89155 8.40552 7.94149 8.6146 7.98182 8.70519C8.1698 9.12742 8.80502 9.12742 8.993 8.70519C9.03333 8.6146 9.08328 8.40552 9.10399 8.24056C9.20708 7.41998 9.80944 6.81762 10.63 6.71453C11.0447 6.66243 11.2396 6.56884 11.3389 6.37425C11.4397 6.17678 11.4397 6.01913 11.3389 5.82165C11.2396 5.62707 11.0447 5.53347 10.63 5.48137C9.80944 5.37828 9.20708 4.77593 9.10399 3.95535C9.05189 3.5407 8.9583 3.34573 8.76371 3.24646C8.56901 3.14712 8.3935 3.14774 8.20279 3.24838ZM15.8154 4.65231L16.0872 4.92623L15.8046 5.2089L15.522 5.49153L15.2393 5.2089L14.9567 4.92623L15.2285 4.65231C15.378 4.50166 15.51 4.3784 15.522 4.3784C15.5339 4.3784 15.6659 4.50166 15.8154 4.65231ZM8.78087 5.82474L9.05268 6.09865L8.77004 6.38133L8.48741 6.66396L8.20478 6.38133L7.92215 6.09865L8.19395 5.82474C8.34344 5.67408 8.47549 5.55082 8.48741 5.55082C8.49933 5.55082 8.63138 5.67408 8.78087 5.82474ZM5.88658 10.2562C5.59934 10.3818 5.76676 9.90997 2.56921 19.607C2.25614 20.5564 2 21.373 2 21.4217C2 21.5945 2.15707 21.8463 2.31523 21.927C2.46377 22.0028 2.59704 22.0038 12.0047 22.0038C21.4123 22.0038 21.5456 22.0028 21.6941 21.927C21.8904 21.8268 22.0297 21.5578 21.9946 21.3469C21.9527 21.0959 18.4577 10.5781 18.3829 10.4779C18.3436 10.4252 18.2628 10.3459 18.2035 10.3016C18.0957 10.2211 18.0885 10.221 12.0507 10.2125C7.0848 10.2056 5.98452 10.2134 5.88658 10.2562ZM11.4185 13.152V14.9302H8.38709H5.35567L5.38299 14.8423C5.48116 14.5261 6.50617 11.4269 6.5204 11.4032C6.53005 11.3871 7.63608 11.3739 8.97823 11.3739H11.4185V13.152ZM18.0683 13.1325C18.3848 14.089 18.6448 14.8848 18.6461 14.9009C18.6474 14.917 17.2855 14.9302 15.6197 14.9302H12.5909V13.1517V11.3733L15.0419 11.3833L17.4929 11.3934L18.0683 13.1325ZM11.4185 18.467V20.8314H7.41007H3.40163L3.42911 20.7449C3.56937 20.303 4.94353 16.1543 4.95701 16.1319C4.96678 16.1158 6.42457 16.1026 8.19661 16.1026H11.4185V18.467ZM19.8266 18.4475C20.2502 19.7264 20.598 20.786 20.5996 20.8021C20.6012 20.8182 18.7999 20.8314 16.5967 20.8314H12.5909V18.4668V16.1022L15.8237 16.1122L19.0565 16.1222L19.8266 18.4475Z" fill="#0F172A"/>
</svg>
