<svg width="25" height="24" viewBox="0 0 25 24" fill="none" xmlns="http://www.w3.org/2000/svg">
<path d="M20 3H5C4.60218 3 4.22064 3.15804 3.93934 3.43934C3.65804 3.72064 3.5 4.10218 3.5 4.5V19.5C3.5 19.8978 3.65804 20.2794 3.93934 20.5607C4.22064 20.842 4.60218 21 5 21H20C20.3978 21 20.7794 20.842 21.0607 20.5607C21.342 20.2794 21.5 19.8978 21.5 19.5V4.5C21.5 4.10218 21.342 3.72064 21.0607 3.43934C20.7794 3.15804 20.3978 3 20 3ZM20 19.5H5V4.5H20V19.5ZM15.5 8.25H9.5C9.30109 8.25 9.11032 8.32902 8.96967 8.46967C8.82902 8.61032 8.75 8.80109 8.75 9V15C8.75 15.1989 8.82902 15.3897 8.96967 15.5303C9.11032 15.671 9.30109 15.75 9.5 15.75H15.5C15.6989 15.75 15.8897 15.671 16.0303 15.5303C16.171 15.3897 16.25 15.1989 16.25 15V9C16.25 8.80109 16.171 8.61032 16.0303 8.46967C15.8897 8.32902 15.6989 8.25 15.5 8.25ZM14.75 14.25H10.25V9.75H14.75V14.25Z" fill="black"/>
</svg>
