<svg width="25" height="24" viewBox="0 0 25 24" fill="none" xmlns="http://www.w3.org/2000/svg">
<path d="M20 6.75H2.75V4.5C2.75 4.30109 2.67098 4.11032 2.53033 3.96967C2.38968 3.82902 2.19891 3.75 2 3.75C1.80109 3.75 1.61032 3.82902 1.46967 3.96967C1.32902 4.11032 1.25 4.30109 1.25 4.5V19.5C1.25 19.6989 1.32902 19.8897 1.46967 20.0303C1.61032 20.171 1.80109 20.25 2 20.25C2.19891 20.25 2.38968 20.171 2.53033 20.0303C2.67098 19.8897 2.75 19.6989 2.75 19.5V16.5H22.25V19.5C22.25 19.6989 22.329 19.8897 22.4697 20.0303C22.6103 20.171 22.8011 20.25 23 20.25C23.1989 20.25 23.3897 20.171 23.5303 20.0303C23.671 19.8897 23.75 19.6989 23.75 19.5V10.5C23.75 9.50544 23.3549 8.55161 22.6516 7.84835C21.9484 7.14509 20.9946 6.75 20 6.75ZM2.75 8.25H9.5V15H2.75V8.25ZM11 15V8.25H20C20.5967 8.25 21.169 8.48705 21.591 8.90901C22.0129 9.33097 22.25 9.90326 22.25 10.5V15H11Z" fill="black"/>
</svg>
