<svg width="26" height="26" viewBox="0 0 26 26" fill="none" xmlns="http://www.w3.org/2000/svg">
<path fill-rule="evenodd" clip-rule="evenodd" d="M8.33341 0.166016H17.6667C22.1771 0.166016 25.8334 3.82235 25.8334 8.33267V17.666C25.8334 22.1763 22.1771 25.8327 17.6667 25.8327H8.33341C3.82309 25.8327 0.166748 22.1763 0.166748 17.666V8.33267C0.166748 3.82235 3.82309 0.166016 8.33341 0.166016ZM8.33342 2.49935C5.11175 2.49935 2.50008 5.11102 2.50008 8.33267V17.666C2.50008 20.8877 5.11175 23.4993 8.33342 23.4993H17.6667C20.8884 23.4993 23.5001 20.8877 23.5001 17.666V8.33267C23.5001 5.11102 20.8884 2.49935 17.6667 2.49935H8.33342ZM12.2549 8.64474L12.2048 12.1706L8.67888 12.1205C8.02978 12.1113 7.4961 12.63 7.48687 13.2791C7.47763 13.9282 7.99635 14.4619 8.64545 14.4711L12.1713 14.5212L12.1212 18.0471C12.112 18.6962 12.6307 19.2299 13.2798 19.2392C13.9289 19.2484 14.4626 18.7297 14.4718 18.0806L14.5219 14.5547L18.0478 14.6048C18.6969 14.6141 19.2306 14.0953 19.2399 13.4462C19.2491 12.7971 18.7304 12.2635 18.0813 12.2542L14.5554 12.2041L14.6055 8.67817C14.6147 8.02907 14.096 7.4954 13.4469 7.48617C12.7978 7.47694 12.2642 7.99564 12.2549 8.64474Z" fill="#B0B1BB"/>
</svg>
