<?xml version="1.0" standalone="no"?>
<!DOCTYPE svg PUBLIC "-//W3C//DTD SVG 20010904//EN"
 "http://www.w3.org/TR/2001/REC-SVG-20010904/DTD/svg10.dtd">
<svg version="1.0" xmlns="http://www.w3.org/2000/svg"
 width="72.000000pt" height="72.000000pt" viewBox="0 0 92.000000 92.000000"
 preserveAspectRatio="xMidYMid meet">

<g transform="translate(0.000000,92.000000) scale(0.100000,-0.100000)"
fill="#000000" stroke="none">
<path d="M328 891 c-31 -10 -77 -30 -101 -44 -52 -31 -140 -124 -166 -176 -68
-132 -67 -291 1 -425 27 -53 112 -142 166 -173 140 -82 324 -82 464 0 54 31
139 120 166 173 72 142 68 312 -11 447 -31 52 -124 140 -176 166 -102 53 -239
65 -343 32z m214 -32 c212 -44 358 -257 319 -466 -41 -225 -251 -374 -469
-334 -222 41 -373 253 -333 467 42 231 258 380 483 333z"/>
<path d="M426 719 c-39 -31 -33 -83 11 -100 40 -15 83 15 83 58 0 19 -41 63
-60 63 -4 0 -19 -9 -34 -21z"/>
<path d="M383 539 c-18 -18 3 -39 38 -39 l29 0 0 -115 0 -115 -44 0 c-49 0
-76 -20 -52 -39 9 -8 50 -11 122 -9 101 3 109 4 109 23 0 17 -8 20 -47 23
l-47 3 -3 137 -3 137 -45 3 c-26 2 -50 -2 -57 -9z"/>
</g>
</svg>
