<svg width="20" height="20" viewBox="0 0 20 20" fill="none" xmlns="http://www.w3.org/2000/svg">
<path d="M10.6334 9.05768C10.55 9.04935 10.45 9.04935 10.3584 9.05768C8.37505 8.99102 6.80005 7.36602 6.80005 5.36602C6.80005 3.32435 8.45005 1.66602 10.5 1.66602C12.5417 1.66602 14.2 3.32435 14.2 5.36602C14.1917 7.36602 12.6167 8.99102 10.6334 9.05768Z" fill="#B0B1BB" stroke="#B0B1BB" stroke-width="1.5" stroke-linecap="round" stroke-linejoin="round"/>
<path d="M6.4666 12.134C4.44993 13.484 4.44993 15.684 6.4666 17.0256C8.75827 18.559 12.5166 18.559 14.8083 17.0256C16.8249 15.6757 16.8249 13.4757 14.8083 12.134C12.5249 10.609 8.7666 10.609 6.4666 12.134Z" fill="#B0B1BB" stroke="#B0B1BB" stroke-width="1.5" stroke-linecap="round" stroke-linejoin="round"/>
</svg>
